<svg width="54" height="13" viewBox="0 0 54 13" fill="none" xmlns="http://www.w3.org/2000/svg">
<path d="M3.984 12.144C4.8 12.144 5.392 11.952 5.904 11.648V9.696C5.552 9.888 5.152 10 4.704 10C4.16 10 3.92 9.728 3.92 9.168V5.504H5.936V3.424H3.92V1.232H1.488V3.424H0.464V5.504H1.488V9.568C1.488 11.552 2.496 12.144 3.984 12.144ZM7.72863 12H10.1606V8.832C10.1606 6.784 11.1526 5.808 12.7686 5.808H12.8966V3.264C11.4566 3.2 10.6566 3.968 10.1606 5.152V3.424H7.72863V12ZM14.5281 12H16.9601V0.32H14.5281V12ZM19.2443 12H21.6763V7.216C21.6763 6.064 22.2363 5.472 23.1483 5.472C24.0603 5.472 24.5723 6.064 24.5723 7.216V12H27.0043V7.216C27.0043 6.064 27.5642 5.472 28.4763 5.472C29.3883 5.472 29.9003 6.064 29.9003 7.216V12H32.3323V6.416C32.3323 4.352 31.2443 3.264 29.4363 3.264C28.2683 3.264 27.3723 3.744 26.6203 4.624C26.1723 3.76 25.3243 3.264 24.2043 3.264C22.9723 3.264 22.2363 3.92 21.6763 4.64V3.424H19.2443V12ZM34.3514 12H36.9434V9.44H34.3514V12ZM39.0255 12H41.4575V8.832C41.4575 6.784 42.4495 5.808 44.0655 5.808H44.1935V3.264C42.7535 3.2 41.9535 3.968 41.4575 5.152V3.424H39.0255V12ZM48.561 12.16C49.793 12.16 50.513 11.504 51.073 10.784V12H53.505V3.424H51.073V8.208C51.073 9.36 50.481 9.952 49.553 9.952C48.625 9.952 48.081 9.36 48.081 8.208V3.424H45.649V8.976C45.649 10.944 46.721 12.16 48.561 12.16Z" fill="#222222"/>
</svg>
